<?xml version="1.0" encoding="iso-8859-1"?>
<!-- Generator: Adobe Illustrator 19.0.0, SVG Export Plug-In . SVG Version: 6.00 Build 0)  -->
<svg version="1.1" id="Capa_1" xmlns="http://www.w3.org/2000/svg" xmlns:xlink="http://www.w3.org/1999/xlink" x="0px" y="0px"
	 viewBox="0 0 512 512" style="enable-background:new 0 0 512 512;" xml:space="preserve">
<g>
	<g transform="translate(1 1)">
		<path style="fill:#1566C0;" d="M412.867,432.152v36.181H37.4v-36.181c0.008-25.041,13.688-48.08,35.669-60.075l76.117-41.557
			c9.993-5.409,16.217-15.859,16.213-27.221v-31.232c-14.691-18.855-25.219-40.609-30.891-63.829
			c-7.314-4.711-11.746-12.804-11.776-21.504V152.6c0.024-7.24,3.127-14.128,8.533-18.944V84.333c0,0-9.301-70.315,81.067-76.373
			c4.096-0.256,8.363-0.427,12.8-0.427c104.021,0,93.867,76.8,93.867,76.8v49.323c5.407,4.816,8.51,11.704,8.533,18.944v7.168
			c-31.097,13.55-51.203,44.245-51.2,78.165v76.8h10.752c2.661,6.746,7.617,12.336,13.995,15.787l76.117,41.557
			C399.179,384.072,412.858,407.111,412.867,432.152z"/>
		<path style="fill:#2296F3;" d="M387.267,432.152v36.181H37.4v-36.181c0.008-25.041,13.688-48.08,35.669-60.075l76.117-41.557
			c9.993-5.409,16.217-15.859,16.213-27.221v-31.232c-14.691-18.855-25.219-40.609-30.891-63.829
			c-7.314-4.711-11.746-12.804-11.776-21.504V152.6c0.024-7.24,3.127-14.128,8.533-18.944V84.333c0,0-9.301-70.315,81.067-76.373
			c90.368,6.059,81.067,76.373,81.067,76.373v49.323c5.407,4.816,8.51,11.704,8.533,18.944v7.168
			c-31.097,13.55-51.203,44.245-51.2,78.165v76.8h10.752c2.661,6.746,7.617,12.336,13.995,15.787l76.117,41.557
			C373.579,384.072,387.258,407.111,387.267,432.152z"/>
		<path style="fill:#558B30;" d="M472.6,323.267v128c0,28.277-22.923,51.2-51.2,51.2H301.933c-28.234-0.103-51.097-22.966-51.2-51.2
			v-128c0-4.713,3.82-8.533,8.533-8.533h204.8C468.78,314.733,472.6,318.554,472.6,323.267z"/>
		<path style="fill:#8BC34A;" d="M447,323.267v128c0,28.277-22.923,51.2-51.2,51.2h-93.867c-28.234-0.103-51.097-22.966-51.2-51.2
			v-128c0-4.713,3.82-8.533,8.533-8.533h179.2C443.18,314.733,447,318.554,447,323.267z"/>
		<circle style="fill:#558B30;" cx="361.667" cy="391.533" r="17.067"/>
	</g>
	<g>
		<path d="M465.067,307.2h-8.533v-68.267c0.068-29.522-13.789-57.348-37.39-75.084c-23.601-17.736-54.183-23.305-82.521-15.028
			c-0.929-6.542-3.739-12.673-8.09-17.647V85.811c1.668-20.19-4.746-40.217-17.835-55.68C293.171,10.138,264.721,0,226.133,0
			s-67.038,10.138-84.565,30.131c-13.087,15.464-19.502,35.49-17.835,55.68v45.363c-5.475,6.19-8.508,14.162-8.533,22.426v34.133
			c0.006,10.324,4.695,20.088,12.749,26.547c5.898,22.319,16.057,43.286,29.918,61.747v28.271
			c0.018,8.246-4.509,15.831-11.776,19.729l-76.117,41.566c-24.722,13.486-40.105,39.397-40.107,67.558v36.181
			c0,4.713,3.821,8.533,8.533,8.533h210.645c9.875,20.819,30.845,34.102,53.888,34.133H422.4
			c32.974-0.038,59.696-26.759,59.733-59.733v-128C482.133,314.841,474.492,307.2,465.067,307.2z M439.467,238.933V307.2h-153.6
			v-68.267c0-42.415,34.385-76.8,76.8-76.8S439.467,196.518,439.467,238.933z M46.933,460.8v-27.648
			c0.01-21.914,11.984-42.074,31.223-52.565l76.066-41.54c12.782-6.878,20.741-20.233,20.71-34.748v-31.232
			c0.001-2.003-0.703-3.942-1.988-5.478c-13.821-17.813-23.744-38.333-29.124-60.228c-0.487-2.159-1.801-4.04-3.661-5.239
			c-4.906-3.142-7.879-8.561-7.893-14.387V153.6c0.011-4.829,2.093-9.421,5.717-12.612c1.792-1.617,2.815-3.918,2.816-6.332V85.333
			c0-0.374-0.025-0.747-0.077-1.118c-1.264-15.52,3.642-30.912,13.653-42.837c14.165-16.137,38.298-24.311,71.757-24.311
			c33.331,0,57.421,8.124,71.578,24.141c10.039,11.986,15.002,27.417,13.833,43.008c-0.051,0.37-0.077,0.744-0.077,1.118v49.323
			c0.001,2.414,1.024,4.714,2.816,6.332c3.625,3.191,5.706,7.783,5.717,12.612v1.826c-31.389,16.018-51.162,48.267-51.2,83.507
			V307.2h-8.533c-9.426,0-17.067,7.641-17.067,17.067v128c0.024,2.857,0.252,5.709,0.683,8.533H46.933z M422.4,494.933H302.933
			c-20.268-0.026-37.731-14.281-41.813-34.133h24.747c4.713,0,8.533-3.82,8.533-8.533s-3.821-8.533-8.533-8.533h-25.6v-17.067h25.6
			c4.713,0,8.533-3.82,8.533-8.533s-3.821-8.533-8.533-8.533h-25.6v-17.067h25.6c4.713,0,8.533-3.82,8.533-8.533
			s-3.821-8.533-8.533-8.533h-25.6V358.4h25.6c4.713,0,8.533-3.821,8.533-8.533c0-4.713-3.821-8.533-8.533-8.533h-25.6v-17.067
			h204.8v17.067h-25.6c-4.713,0-8.533,3.821-8.533,8.533c0,4.713,3.821,8.533,8.533,8.533h25.6v17.067h-25.6
			c-4.713,0-8.533,3.821-8.533,8.533s3.821,8.533,8.533,8.533h25.6V409.6h-25.6c-4.713,0-8.533,3.82-8.533,8.533
			s3.821,8.533,8.533,8.533h25.6v17.067h-25.6c-4.713,0-8.533,3.82-8.533,8.533s3.821,8.533,8.533,8.533h24.747
			C460.131,480.652,442.668,494.908,422.4,494.933z"/>
		<path d="M362.667,366.933c-12.454-0.024-23.109,8.939-25.219,21.212c-2.11,12.274,4.939,24.28,16.686,28.418V435.2
			c0,4.713,3.82,8.533,8.533,8.533s8.533-3.821,8.533-8.533v-18.637c11.747-4.137,18.796-16.144,16.686-28.418
			C385.776,375.872,375.121,366.91,362.667,366.933z M362.667,401.067c-4.713,0-8.533-3.82-8.533-8.533s3.82-8.533,8.533-8.533
			s8.533,3.82,8.533,8.533S367.38,401.067,362.667,401.067z"/>
	</g>
</g>
<g>
</g>
<g>
</g>
<g>
</g>
<g>
</g>
<g>
</g>
<g>
</g>
<g>
</g>
<g>
</g>
<g>
</g>
<g>
</g>
<g>
</g>
<g>
</g>
<g>
</g>
<g>
</g>
<g>
</g>
</svg>
